<svg width="572" height="818" viewBox="0 0 572 818" fill="none" xmlns="http://www.w3.org/2000/svg">
<path d="M557.8 34.2329H385.691C339.54 6.76246 282.398 -6.13741 222.415 2.81855C119.718 18.1286 36.9299 98.6226 22.1615 197.795C14.3797 250.107 24.7744 300.282 48.8298 342.597C51.8971 348.02 50.8747 354.456 46.359 358.838C16.5098 387.842 -1.46789 428.268 0.0941499 472.91C3.07623 557.458 79.5594 622.532 167.318 622.532H393.785C417.841 622.532 440.277 638.198 444.339 661.04C448.854 686.484 431.473 709.134 407.446 714.283C401.226 715.625 397.051 721.212 397.051 727.347V804.171C397.051 812.032 403.924 818.66 412.047 817.947C498.896 810.197 565.837 735.837 557.374 648.086C549.563 567.263 474.529 507.748 390.32 507.748H164.591C131.448 507.748 101.74 481.565 103.16 449.63C103.444 443.085 104.893 436.922 107.307 431.198C110.601 423.447 120.797 421.366 128.068 425.912C154.992 442.674 185.494 454.67 218.127 460.367C231.759 462.831 245.959 463.927 260.16 463.927C281.176 463.927 301.625 461.188 321.221 456.258C424.6 430.239 500.714 339.584 500.714 231.949C500.714 197.713 493.046 165.395 479.13 136.364H557.8C565.638 136.364 572 130.229 572 122.67V47.927C572 40.3678 565.638 34.2329 557.8 34.2329ZM270.1 353.854C266.692 354.401 263.568 354.401 260.16 354.401C222.387 354.401 188.306 338.242 165.017 312.771C145.137 291.408 133.208 262.925 133.208 231.976C133.208 155.344 206.454 95.2265 288.561 112.536C339.284 123.217 378.79 164.957 385.862 214.557C396.114 286.533 341.528 348.759 270.1 353.826V353.854Z" fill="#FF0000"/>
</svg>
